<?xml version="1.0" encoding="UTF-8" standalone="no"?>
<!-- Created with Inkscape (http://www.inkscape.org/) -->

<svg
   width="187mm"
   height="44mm"
   viewBox="0 0 187 44"
   version="1.1"
   id="svg5"
   inkscape:version="1.3.2 (091e20e, 2023-11-25, custom)"
   sodipodi:docname="logoUCaldas.svg"
   xmlns:inkscape="http://www.inkscape.org/namespaces/inkscape"
   xmlns:sodipodi="http://sodipodi.sourceforge.net/DTD/sodipodi-0.dtd"
   xmlns="http://www.w3.org/2000/svg"
   xmlns:svg="http://www.w3.org/2000/svg">
  <sodipodi:namedview
     id="namedview7"
     pagecolor="#ffffff"
     bordercolor="#666666"
     borderopacity="1.0"
     inkscape:pageshadow="2"
     inkscape:pageopacity="0.0"
     inkscape:pagecheckerboard="0"
     inkscape:document-units="mm"
     showgrid="false"
     inkscape:zoom="1.3289991"
     inkscape:cx="386.381"
     inkscape:cy="160.64721"
     inkscape:window-width="1920"
     inkscape:window-height="1001"
     inkscape:window-x="-9"
     inkscape:window-y="-9"
     inkscape:window-maximized="1"
     inkscape:current-layer="layer1"
     inkscape:showpageshadow="2"
     inkscape:deskcolor="#d1d1d1"
     inkscape:clip-to-page="false" />
  <defs
     id="defs2">
    <rect
       x="259.59387"
       y="36.117405"
       width="220.46667"
       height="44.394314"
       id="rect12859" />
    <clipPath
       clipPathUnits="userSpaceOnUse"
       id="clipPath910">
      <ellipse
         style="fill:none;stroke:#000000;stroke-width:0.231948"
         id="ellipse912"
         cx="77.045761"
         cy="94.664757"
         rx="18.730278"
         ry="19.227987" />
    </clipPath>
  </defs>
  <g
     inkscape:label="Capa 1"
     inkscape:groupmode="layer"
     id="layer1">
    <text
       xml:space="preserve"
       style="font-style:normal;font-weight:normal;font-size:8.00635px;line-height:1.25;font-family:sans-serif;fill:#ffffff;fill-opacity:1;stroke:none;stroke-width:0.20016"
       x="46.870037"
       y="14.000769"
       id="text1101"
       transform="scale(0.9407161,1.06302)"
       inkscape:export-filename="logo.png"
       inkscape:export-xdpi="96"
       inkscape:export-ydpi="96"><tspan
         sodipodi:role="line"
         id="tspan1099"
         style="font-style:normal;font-variant:normal;font-weight:normal;font-stretch:normal;font-family:'Harlow Solid Italic';-inkscape-font-specification:'Harlow Solid Italic, ';fill:#ffffff;fill-opacity:1;stroke-width:0.20016"
         x="46.870037"
         y="14.000769">Prof. Luis Eduardo López-Montenegro, PhD.</tspan><tspan
         sodipodi:role="line"
         style="font-style:normal;font-variant:normal;font-weight:normal;font-stretch:normal;font-family:'Modern No. 20';-inkscape-font-specification:'Modern No. 20, ';fill:#ffffff;fill-opacity:1;stroke-width:0.20016"
         x="46.870037"
         y="24.767349"
         id="tspan28025">Departamento de matemáticas</tspan><tspan
         sodipodi:role="line"
         style="fill:#ffffff;fill-opacity:1;stroke-width:0.20016"
         x="46.870037"
         y="35.013798"
         id="tspan18431"><tspan
   style="font-style:normal;font-variant:normal;font-weight:normal;font-stretch:normal;font-family:'Modern No. 20';-inkscape-font-specification:'Modern No. 20, ';fill:#ffffff;fill-opacity:1;stroke-width:0.20016"
   id="tspan21913">Universidad de Caldas</tspan> </tspan></text>
    <text
       xml:space="preserve"
       transform="scale(0.26458333)"
       id="text12857"
       style="font-style:normal;font-weight:normal;font-size:40px;line-height:1.25;font-family:sans-serif;white-space:pre;shape-inside:url(#rect12859);fill:#000000;fill-opacity:1;stroke:none" />
    <path
       style="fill:#ffffff;fill-opacity:1"
       d="M 19.701578,40.374492 C 16.60425,40.054871 13.903363,38.977127 10.987923,36.89745 10.214474,36.345725 7.9513075,34.036155 7.3272825,33.161754 6.6971645,32.278813 5.8504205,30.85143 5.3786815,29.876932 c -0.45868,-0.947522 -1.067649,-2.805726 -1.21511,-3.707783 -0.03412,-0.208694 -0.136617,-0.69655 -0.227781,-1.084124 -0.245422,-1.043397 -0.241202,-4.732053 0.0068,-5.90848 0.607741,-2.88335 1.137896,-4.341847 2.305324,-6.34213 0.882798,-1.512594 1.55081,-2.368874 2.918061,-3.740465 1.3298465,-1.334067 1.7294575,-1.658011 3.1867755,-2.583352 1.943561,-1.2340872 3.381836,-1.8060602 5.931585,-2.3588712 0.913622,-0.198082 1.452786,-0.239677 3.149514,-0.242972 2.11223,-0.0041 2.309541,0.02169 4.566795,0.597047 1.740779,0.443708 3.973136,1.5493292 5.879093,2.9117432 0.775052,0.554022 3.037564,2.863406 3.660639,3.736476 1.788551,2.506163 2.654761,4.559273 3.384731,8.022524 0.24796,1.176427 0.25218,4.865083 0.007,5.90848 -0.0912,0.387574 -0.19367,0.87543 -0.22778,1.084124 -0.15235,0.931928 -0.75964,2.768062 -1.2438,3.760561 -0.39155,0.802659 -1.178029,2.155506 -1.752898,3.015219 -0.519013,0.776182 -2.876493,3.246654 -3.605149,3.777943 -2.695838,1.965629 -4.508596,2.780926 -7.728846,3.476088 -0.934041,0.201633 -3.488684,0.297618 -4.671779,0.175532 z M 24.7408,39.883277 c 0.692893,-0.142951 1.425155,-0.316008 1.627249,-0.384572 1.787348,-0.606386 4.187553,-1.873573 5.511461,-2.909773 1.122565,-0.878612 3.544838,-3.508947 4.092482,-4.444006 0.969306,-1.655011 2.181846,-4.240581 2.164996,-4.616555 -0.001,-0.03039 0.0645,-0.251177 0.14628,-0.490637 0.13557,-0.396775 0.35298,-1.46244 0.41038,-2.011502 0.0127,-0.121776 0.064,-0.289648 0.1139,-0.37305 0.0499,-0.0834 0.0892,-1.130228 0.0873,-2.326282 -0.003,-1.906763 -0.0369,-2.341906 -0.27466,-3.532481 -0.14915,-0.746811 -0.32014,-1.490791 -0.37997,-1.65329 -0.0598,-0.162499 -0.0889,-0.295453 -0.0647,-0.295453 0.0242,0 -0.076,-0.280517 -0.22273,-0.623371 -0.14675,-0.342855 -0.33727,-0.794122 -0.42338,-1.002816 -0.32032,-0.77631 -0.960453,-2.029373 -1.557415,-3.048639 C 35.623411,11.575673 34.786576,10.577676 33.696026,9.456567 31.923183,7.634046 31.365157,7.2164 29.150121,6.054251 27.296631,5.0817928 26.541307,4.8089418 24.478342,4.3666348 22.894021,4.0269498 19.871136,4.0266658 18.284298,4.3660528 16.009783,4.8525158 14.194787,5.625876 11.762626,7.144903 10.564565,7.893161 7.6202235,10.933662 6.8956295,12.17085 c -0.596962,1.019266 -1.237096,2.272329 -1.557415,3.048639 -0.08611,0.208694 -0.276632,0.659961 -0.42338,1.002816 -0.146748,0.342854 -0.246977,0.623371 -0.22273,0.623371 0.02425,0 -0.0049,0.132954 -0.06469,0.295453 -0.05983,0.162499 -0.230816,0.906479 -0.379973,1.65329 -0.237789,1.190575 -0.271622,1.625718 -0.274657,3.532481 -0.0019,1.196054 0.03738,2.242881 0.08729,2.326282 0.04992,0.0834 0.101171,0.251274 0.113902,0.37305 0.0574,0.549062 0.274812,1.614727 0.410375,2.011502 0.08181,0.23946 0.14764,0.460247 0.146278,0.490637 -0.01684,0.375974 1.195698,2.961544 2.165001,4.616555 0.551195,0.941122 3.016698,3.609011 4.1125095,4.450091 1.986761,1.524921 4.747746,2.823841 7.013699,3.299631 2.042422,0.428855 4.606193,0.424516 6.718963,-0.01137 z m -4.724271,-1.145712 c -0.173223,-0.04143 -0.255898,-0.0811 -0.183721,-0.08815 0.07218,-0.0071 0.131229,-0.106522 0.131229,-0.221038 0,-0.145046 -0.09952,-0.230784 -0.328066,-0.28262 -0.349089,-0.07918 -0.556665,0.08769 -0.457019,0.367386 0.03544,0.09946 -0.002,0.125976 -0.114673,0.08131 -0.09199,-0.03645 -0.19882,-0.06702 -0.237404,-0.06794 -0.03858,-9.13e-4 -0.01584,-0.0375 0.05053,-0.08131 0.06638,-0.04381 0.31063,-0.417916 0.542789,-0.831353 l 0.422107,-0.751703 0.07533,0.414641 c 0.04143,0.228053 0.162431,0.660729 0.26889,0.961503 0.10646,0.300774 0.182628,0.553103 0.169263,0.560732 -0.01337,0.0076 -0.166029,-0.02003 -0.339253,-0.06146 z m -0.198735,-0.922941 c -0.03505,-0.09432 -0.06372,-0.222255 -0.06372,-0.284306 0,-0.06831 -0.06213,-0.05958 -0.157476,0.02214 -0.22813,0.195515 -0.193137,0.43365 0.06372,0.43365 0.158573,0 0.203158,-0.04855 0.157476,-0.171484 z m 2.849576,0.855641 c -0.101047,-0.02727 -0.183721,-0.126742 -0.183721,-0.221052 0,-0.149963 0.02551,-0.147633 0.203352,0.01857 0.111844,0.104523 0.253572,0.15799 0.314951,0.118817 0.200151,-0.12774 0.11759,-0.483027 -0.155123,-0.667551 -0.413617,-0.279863 -0.520008,-0.56139 -0.304909,-0.806835 0.254964,-0.290932 0.647885,-0.233204 0.710375,0.104369 l 0.04974,0.268672 -0.18579,-0.254351 c -0.118978,-0.162884 -0.247251,-0.229997 -0.356699,-0.186626 -0.290216,0.115004 -0.190171,0.384492 0.249026,0.6708 0.476538,0.31065 0.540381,0.605267 0.186608,0.861152 -0.12833,0.09282 -0.258248,0.163107 -0.288706,0.15619 -0.03046,-0.0069 -0.138053,-0.03489 -0.2391,-0.06216 z m 1.84576,-0.440228 c -0.02404,-0.446943 -0.232002,-1.25291 -0.341286,-1.322656 -0.152328,-0.09722 0.587813,-0.337158 0.791298,-0.256523 0.08301,0.0329 0.203154,0.16057 0.266977,0.28372 0.09625,0.18572 0.07586,0.257507 -0.11953,0.420895 -0.129566,0.108343 -0.301204,0.196986 -0.381419,0.196986 -0.176947,0 -0.178499,0.0242 -0.02401,0.374343 0.06701,0.151873 0.173305,0.276879 0.236213,0.277792 0.1428,0.0021 -0.160206,0.211229 -0.309306,0.213505 -0.0598,9.13e-4 -0.113325,-0.08372 -0.118937,-0.188062 z m 0.437638,-1.112712 c 0,-0.19699 -0.06358,-0.278872 -0.236214,-0.30419 -0.252322,-0.03701 -0.26962,0.0032 -0.168714,0.392234 0.08753,0.33744 0.404928,0.268427 0.404928,-0.08804 z m -7.351755,0.855202 c -0.102779,-0.483231 -0.434309,-1.217113 -0.50014,-1.107118 -0.08163,0.136389 -0.225445,0.936819 -0.196182,1.091866 0.01477,0.07826 -0.03981,0.108003 -0.131501,0.07167 -0.109234,-0.04329 -0.128789,-0.116707 -0.06451,-0.242197 0.225288,-0.439812 0.406154,-1.262693 0.305157,-1.388361 -0.07631,-0.09495 -0.05117,-0.11546 0.09361,-0.07637 0.124546,0.03363 0.268448,0.261602 0.388108,0.614842 0.104595,0.308765 0.222884,0.599546 0.262864,0.64618 0.0893,0.104157 0.350363,-0.755957 0.270138,-0.890002 -0.03162,-0.05284 0.03536,-0.071 0.148853,-0.04035 0.167373,0.0452 0.181035,0.08187 0.07233,0.194122 -0.07371,0.07612 -0.198199,0.414659 -0.276639,0.752312 -0.169759,0.730746 -0.27386,0.835216 -0.372084,0.373401 z m 8.891491,-0.897943 c 0.03895,-0.482504 0.07457,-0.900146 0.07916,-0.928093 0.0046,-0.02795 0.292446,0.239503 0.639678,0.594333 0.518351,0.529695 0.598481,0.657044 0.447773,0.711636 -0.122914,0.04452 -0.220691,-0.0086 -0.295957,-0.160683 -0.06182,-0.124946 -0.191701,-0.213018 -0.288622,-0.195716 -0.111856,0.01997 -0.156307,-0.02213 -0.121702,-0.115253 0.02998,-0.08069 -0.04163,-0.236568 -0.159152,-0.346395 -0.210498,-0.196719 -0.21367,-0.19474 -0.21367,0.133322 0,0.183153 0.05905,0.357612 0.13123,0.387687 0.104983,0.04375 0.104983,0.05639 0,0.06324 -0.169405,0.01105 -0.171788,0.518592 -0.0027,0.576792 0.07147,0.0246 0.03634,0.06914 -0.07916,0.100325 -0.198414,0.05358 -0.204525,0.01692 -0.136871,-0.821196 z m -11.303229,0.369463 c -0.115483,-0.05125 -0.149745,-0.0966 -0.07614,-0.100793 0.07361,-0.0042 0.182475,-0.14178 0.241932,-0.305754 0.273319,-0.753772 0.462883,-1.111228 0.589298,-1.111228 0.173645,0 0.175985,-0.01585 -0.07176,0.485957 -0.114966,0.232864 -0.238331,0.584679 -0.274143,0.78181 -0.06958,0.383014 -0.08636,0.393264 -0.409189,0.250008 z M 13.800814,36.83176 c -0.08511,-0.03569 -0.02485,-0.198239 0.183721,-0.495564 0.446608,-0.636659 0.3847,-0.701556 -0.226944,-0.237904 l -0.537322,0.407312 0.07154,-0.696213 0.07154,-0.696212 -0.275171,0.460961 c -0.151344,0.253529 -0.243874,0.513255 -0.205622,0.577169 0.03825,0.06391 -0.03147,0.05162 -0.154937,-0.02731 -0.170944,-0.109287 -0.186986,-0.1517 -0.06726,-0.177819 0.08647,-0.01886 0.288845,-0.321102 0.449714,-0.671639 0.160869,-0.350536 0.339732,-0.622932 0.397473,-0.605324 0.05774,0.01761 0.100516,0.330235 0.09505,0.694726 -0.01067,0.712334 -0.01546,0.709954 0.554089,0.275306 0.355767,-0.271502 0.609763,-0.323541 0.715645,-0.146625 0.03569,0.05963 -0.003,0.108413 -0.08605,0.108413 -0.08301,0 -0.208992,0.144739 -0.27995,0.321643 -0.07096,0.176903 -0.194797,0.378019 -0.275197,0.446924 -0.0804,0.06891 -0.14618,0.216879 -0.14618,0.328832 0,0.205419 -0.05295,0.230263 -0.284131,0.133326 z m 14.981863,-0.136388 c 0,-0.117833 -0.04345,-0.241974 -0.09656,-0.275869 -0.05311,-0.0339 -0.215454,-0.281294 -0.360765,-0.549776 l -0.264203,-0.488148 0.411844,-0.216968 0.411844,-0.216969 0.213786,0.220768 c 0.171332,0.176928 0.191396,0.263972 0.101035,0.438328 -0.09882,0.190675 -0.0671,0.237256 0.256682,0.376959 0.203188,0.08767 0.430004,0.160884 0.504034,0.162697 0.08115,0.002 0.0632,0.04628 -0.04522,0.111548 -0.126958,0.07643 -0.292766,0.05952 -0.563986,-0.0575 -0.211288,-0.09116 -0.425633,-0.165754 -0.476323,-0.165754 -0.157173,0 -0.101807,0.206865 0.115399,0.431165 0.20676,0.213512 0.20676,0.214783 0,0.329052 -0.174212,0.09628 -0.207561,0.08029 -0.207561,-0.09953 z m 0.04391,-0.834905 c 0.204308,-0.08096 0.216732,-0.406283 0.02189,-0.573266 -0.152818,-0.13097 -0.485734,-0.05552 -0.485734,0.110079 0,0.08791 0.232739,0.528992 0.279127,0.528992 0.01026,0 0.09338,-0.02961 0.184714,-0.0658 z m 1.883282,-0.583757 c -0.504858,-0.210389 -0.721454,-0.940277 -0.40431,-1.362451 0.148009,-0.197026 0.151543,-0.191495 0.05544,0.08675 -0.118908,0.344259 -0.0572,0.581085 0.240354,0.922448 0.230853,0.26484 0.494599,0.307574 0.812828,0.131701 0.26775,-0.147975 0.256146,-0.276465 -0.05388,-0.596615 -0.249194,-0.257333 -0.250777,-0.268745 -0.05249,-0.378331 0.150101,-0.08295 0.204453,-0.07822 0.204453,0.0178 0,0.07194 0.07463,0.215952 0.165844,0.320034 0.130128,0.148485 0.140762,0.237634 0.04938,0.413961 -0.09473,0.182788 -0.63825,0.572182 -0.761175,0.545331 -0.0173,-0.0038 -0.132701,-0.04906 -0.25644,-0.100628 z M 11.109177,34.860714 c -0.254001,-0.289834 -0.213989,-0.586935 0.141205,-1.048485 0.173223,-0.225092 0.314951,-0.477445 0.314951,-0.560784 0,-0.121127 0.04497,-0.126674 0.224151,-0.02765 0.123283,0.06813 0.182256,0.155225 0.131052,0.193536 -0.0512,0.03831 -0.246558,0.2543 -0.434119,0.479976 -0.490534,0.590217 -0.432915,1.053249 0.131064,1.053249 0.07698,0 0.329231,-0.24548 0.560565,-0.545511 0.231333,-0.300032 0.448238,-0.499341 0.482011,-0.44291 0.03377,0.05643 0.02533,0.118965 -0.01877,0.138965 -0.0441,0.02 -0.237331,0.243701 -0.429411,0.497115 -0.390314,0.514944 -0.796688,0.61168 -1.102703,0.262495 z m 19.828501,-1.097957 c -0.03413,-0.05702 -0.143211,-0.07773 -0.242409,-0.04602 -0.149816,0.04789 -0.14737,0.03592 0.01444,-0.07073 0.156464,-0.103121 0.228041,-0.09406 0.363694,0.04602 0.100255,0.10353 0.119603,0.174409 0.04761,0.174409 -0.06671,0 -0.149207,-0.04666 -0.183335,-0.103679 z M 9.3869285,33.221309 c -0.313598,-0.390075 -0.324993,-0.429701 -0.140912,-0.490035 0.110152,-0.0361 0.389578,-0.277716 0.620947,-0.53692 0.3024695,-0.338857 0.4526855,-0.438221 0.5346025,-0.353629 0.153618,0.158635 0.143748,0.29111 -0.02169,0.29111 -0.07459,0 -0.335828,0.210663 -0.5805305,0.468139 -0.429192,0.451597 -0.438019,0.474581 -0.249805,0.650475 0.107309,0.100285 0.309494,0.183083 0.4493,0.183996 0.2026475,0.0013 0.2222605,0.02297 0.09672,0.106753 -0.2547655,0.170018 -0.3489565,0.127499 -0.7086325,-0.319889 z m 22.8427535,0.130167 c -0.369167,-0.41266 -0.426027,-0.641315 -0.247922,-0.99698 0.162037,-0.323578 0.541355,-0.48607 0.860697,-0.368704 0.503367,0.185 0.848607,0.766496 0.665193,1.1204 -0.321156,0.619684 -0.8519,0.72155 -1.277968,0.245284 z m 1.066791,-0.134537 c 0.259225,-0.500186 -0.54216,-1.256985 -1.039806,-0.981955 -0.294571,0.162798 -0.276545,0.460673 0.0523,0.864246 0.325393,0.399336 0.81152,0.457282 0.987506,0.117709 z M 23.77681,32.321557 C 23.599278,32.12777 23.324902,31.65211 23.167084,31.264536 22.820617,30.413668 22.767163,30.2815 22.481694,29.56988 c -0.283262,-0.706121 -0.250365,-1.272759 0.07668,-1.320788 0.127712,-0.01875 0.458411,0.09969 0.734887,0.263222 0.64227,0.379883 0.592889,0.326188 0.61592,0.669724 0.01758,0.262201 0.115968,0.487989 0.558497,1.281654 0.195539,0.350697 0.535581,1.340839 0.535581,1.559521 0,0.270976 -0.397748,0.650685 -0.681596,0.650685 -0.122139,0 -0.367323,-0.158553 -0.544853,-0.352341 z m -6.009813,-0.04172 c -0.307581,-0.403797 -0.275981,-0.635079 0.220597,-1.614563 0.241001,-0.475367 0.567004,-1.132625 0.72445,-1.460572 0.312263,-0.650419 0.694911,-0.953208 1.264319,-1.000454 l 0.355118,-0.02946 -0.0067,0.487856 c -0.0037,0.268321 -0.08976,0.682999 -0.191258,0.921506 -0.475337,1.116972 -0.841983,1.868009 -1.172087,2.400898 -0.30095,0.485824 -0.409876,0.580445 -0.6682,0.580445 -0.208381,0 -0.379314,-0.09279 -0.526223,-0.285651 z m 10.19398,-2.626543 c -1.04814,-1.158937 -1.754503,-1.861891 -1.928089,-1.918784 -0.338354,-0.110897 -0.429179,-0.550536 -0.237104,-1.147706 0.09306,-0.289335 0.217056,-0.526064 0.275542,-0.526064 0.05849,0 0.491684,0.370543 0.962663,0.823429 0.470979,0.452886 1.028557,0.914744 1.239062,1.026352 0.647866,0.343491 0.715193,0.464664 0.669552,1.205028 -0.02401,0.389399 -0.09805,0.701082 -0.179158,0.754196 -0.255445,0.167269 -0.51996,0.09592 -0.802468,-0.216451 z m -14.496722,-1.28257 c -0.300536,-0.06291 -0.534132,-0.281654 -0.534132,-0.500158 0,-0.157546 0.95528,-1.401646 1.659528,-2.16127 0.517468,-0.558158 1.141125,-0.796835 1.638864,-0.627202 0.206822,0.07049 0.376041,0.175583 0.376041,0.233547 0,0.373812 -1.230096,2.120816 -1.880741,2.671061 -0.427767,0.361759 -0.809686,0.478201 -1.25956,0.384022 z m 6.865979,-1.000831 c -0.9026,-0.148638 -1.680392,-0.594588 -2.446303,-1.402597 -0.689356,-0.727247 -0.787275,-0.883963 -1.291241,-2.066595 -0.214032,-0.502256 -0.248989,-0.749306 -0.239597,-1.693263 0.01051,-1.056708 0.02894,-1.142374 0.419935,-1.952081 0.495294,-1.025704 1.468809,-2.082468 2.333619,-2.533176 1.331333,-0.693842 3.243268,-0.68319 4.626459,0.02578 0.941218,0.482429 1.849209,1.446524 2.361487,2.5074 0.390993,0.809707 0.409422,0.895373 0.419935,1.952081 0.01137,1.142992 -0.01214,1.23751 -0.659532,2.651072 -0.247845,0.541163 -1.494534,1.77913 -2.02332,2.009163 -0.250616,0.109024 -0.599395,0.26226 -0.775066,0.340525 -0.402672,0.179399 -2.03206,0.276034 -2.726376,0.161695 z m 2.153415,-1.36906 c 0.943127,-0.173515 1.963714,-1.092809 2.521195,-2.270964 0.212828,-0.449782 0.253952,-0.689712 0.241563,-1.409363 -0.01695,-0.984548 -0.147503,-1.418944 -0.65483,-2.178841 -0.400479,-0.599854 -1.336854,-1.277736 -2.091792,-1.514337 -0.620998,-0.194623 -1.489141,-0.195295 -2.193357,-0.0017 -0.526129,0.14464 -1.554564,0.80968 -1.745272,1.128585 -0.04982,0.08331 -0.167928,0.232828 -0.262459,0.332258 -0.418221,0.439894 -0.693419,1.353539 -0.689239,2.288239 0.0029,0.659313 0.05813,0.929915 0.291762,1.430774 0.286938,0.615132 1.053842,1.522734 1.597513,1.890595 0.604604,0.409089 1.770691,0.528144 2.984916,0.304751 z M 20.461806,25.56615 c -0.812682,-0.203366 -1.093815,-0.37038 -1.66238,-0.987579 -1.282302,-1.391989 -1.265375,-3.584536 0.03731,-4.832861 0.295561,-0.283227 0.593467,-0.514959 0.662011,-0.514959 0.06855,0 0.177074,-0.06526 0.241175,-0.145018 0.0641,-0.07976 0.445392,-0.205705 0.847312,-0.279878 1.24606,-0.229956 2.424722,0.132609 3.22382,0.991669 0.606103,0.651583 0.828257,1.328661 0.810023,2.468776 -0.01843,1.152515 -0.236089,1.68329 -1.014843,2.474794 -0.493003,0.501074 -0.670091,0.60518 -1.337002,0.78599 -0.887316,0.240565 -0.993068,0.242851 -1.807428,0.03907 z m 1.567801,-1.247829 c 0.654818,-0.194289 1.230496,-0.870254 1.386602,-1.628159 0.08841,-0.429231 0.0931,-0.692244 0.01607,-0.90146 -0.05982,-0.162473 -0.10876,-0.409033 -0.10876,-0.547913 0,-0.415537 -0.511022,-0.867604 -1.278918,-1.131373 -0.665132,-0.228471 -0.729564,-0.232361 -1.242604,-0.07503 -1.016581,0.311752 -1.5082,0.738604 -1.634096,1.41882 -0.281382,1.520303 0.157574,2.398015 1.420998,2.841349 0.37809,0.132672 0.7583,0.221555 0.844912,0.19752 0.08661,-0.02404 0.354719,-0.102226 0.595796,-0.173754 z m -1.248748,-0.194115 c -0.233127,-0.120331 -0.424129,-0.352127 -0.592937,-0.719575 -0.395861,-0.86168 -0.400455,-1.214895 -0.02577,-1.981382 0.289771,-0.592781 0.372789,-0.679153 0.75491,-0.785408 0.236134,-0.06566 0.57892,-0.0858 0.761747,-0.04475 0.600501,0.134823 1.224775,1.035663 1.224775,1.767376 0,0.407171 -0.442454,1.397754 -0.71112,1.59208 -0.39893,0.288547 -1.035236,0.365926 -1.411605,0.171659 z m 1.076606,-1.017709 c 0.323259,-0.540819 0.357515,-0.81485 0.151295,-1.210282 -0.382697,-0.733835 -0.861947,-0.757666 -1.206613,-0.06 -0.264988,0.536383 -0.262435,0.586512 0.05868,1.152346 0.339841,0.598834 0.684799,0.639654 0.99664,0.117937 z M 6.4010655,26.828472 c -0.16995,-0.548802 -0.169549,-0.56549 0.0096,-0.398109 0.17265,0.161349 0.250423,0.153306 1.017332,-0.105204 0.456714,-0.15395 0.913064,-0.357164 1.014111,-0.451587 0.352577,-0.329464 0.175112,-1.040095 -0.307013,-1.229385 -0.403883,-0.158572 -1.91206,0.280505 -2.022503,0.588813 -0.07917,0.221009 -0.08393,0.219758 -0.157322,-0.04134 -0.199496,-0.709765 -0.200471,-0.722843 -0.03743,-0.50243 0.143882,0.194511 0.1695,0.193705 0.861787,-0.0271 1.360845,-0.43405 1.9191,-0.215764 2.029257,0.79347 0.06769,0.620134 -0.146236,0.992706 -0.62568,1.08969 -0.672212,0.135978 -1.540958,0.514147 -1.572751,0.684624 -0.01758,0.09426 -0.111784,-0.08639 -0.209346,-0.401436 z m 29.5730015,0.207977 c -0.215318,-0.05658 -0.247616,-0.08682 -0.102097,-0.09559 0.663473,-0.03998 0.950819,-0.896121 0.32553,-0.96991 -0.221764,-0.02617 -0.38833,0.05091 -0.629903,0.291485 -0.458908,0.457016 -0.852513,0.595405 -1.201779,0.422539 -0.400996,-0.198469 -0.533074,-0.664621 -0.304727,-1.075487 0.09941,-0.178867 0.180743,-0.38353 0.180743,-0.454807 0,-0.08668 0.144898,-0.115325 0.437598,-0.0865 l 0.437598,0.0431 -0.411352,0.14786 c -0.226243,0.08132 -0.4215,0.148594 -0.433904,0.149492 -0.0124,8.97e-4 -0.07482,0.102475 -0.138691,0.225727 -0.09034,0.17432 -0.07897,0.28268 0.05122,0.487856 0.232569,0.366537 0.447639,0.332021 1.103859,-0.177157 0.39176,-0.303976 0.635429,-0.422285 0.784553,-0.380924 0.118968,0.033 0.267776,0.06066 0.330684,0.06148 0.253556,0.0033 0.334449,0.477585 0.171419,1.005087 -0.0874,0.282792 -0.187459,0.508396 -0.222354,0.501341 -0.03489,-0.0071 -0.205172,-0.05007 -0.378395,-0.09559 z M 29.98999,25.195636 c -0.288705,-0.109681 -1.020967,-0.378366 -1.627249,-0.597079 -0.606281,-0.218712 -1.160485,-0.455669 -1.231563,-0.526571 -0.181399,-0.180949 0.194603,-0.80197 0.539714,-0.891417 0.37537,-0.09729 3.362409,0.747741 3.925322,1.110469 0.278477,0.179445 0.239771,0.475789 -0.114325,0.875296 -0.266656,0.300853 -0.752022,0.310387 -1.491899,0.0293 z m 4.391945,-0.515231 c 0.03353,-0.05603 0.07249,-0.278445 0.08656,-0.494257 0.01903,-0.291726 0.05799,-0.364619 0.151882,-0.284148 0.174383,0.149451 0.653518,0.0079 0.710858,-0.210012 0.0259,-0.09842 0.07658,-0.359706 0.112621,-0.580638 0.05974,-0.366159 0.03779,-0.416508 -0.248079,-0.569165 -0.395437,-0.211167 -0.427185,-0.209552 -0.437312,0.02225 -0.0053,0.120851 -0.02806,0.13884 -0.06274,0.04955 -0.07472,-0.192333 0.06808,-0.742734 0.156981,-0.605076 0.03934,0.06091 0.608547,0.471136 1.264908,0.911612 0.656361,0.440477 1.152404,0.814822 1.102334,0.831878 -0.28396,0.09671 -1.622851,0.492304 -1.980766,0.58524 -0.230964,0.05997 -0.532048,0.184548 -0.669074,0.276837 -0.137027,0.09229 -0.221704,0.121956 -0.188171,0.06593 z m 2.103633,-1.138329 c 0.174581,-0.09331 0.146339,-0.134497 -0.252673,-0.368542 -0.247072,-0.144923 -0.494761,-0.247821 -0.550419,-0.228662 -0.05566,0.01916 -0.111885,0.216626 -0.124949,0.438818 l -0.02375,0.403984 0.377621,-0.07028 c 0.207692,-0.03865 0.466069,-0.117546 0.574171,-0.175322 z M 5.5812565,23.363369 c 0,-0.257577 0.156348,-0.450894 0.892362,-1.103365 0.843286,-0.747567 1.099708,-1.074778 0.7263,-0.926809 -0.09133,0.03619 -0.438435,0.0658 -0.771335,0.0658 -0.523947,0 -0.62058,0.03278 -0.719195,0.243928 -0.0978,0.209418 -0.113204,0.167239 -0.108849,-0.298134 0.0028,-0.298134 0.02668,-0.456687 0.05309,-0.35234 0.04235,0.167358 0.1987,0.190096 1.326365,0.192899 l 1.278354,0.0032 -0.367444,0.340792 c -0.202093,0.187435 -0.674521,0.623168 -1.049838,0.968295 l -0.682394,0.627504 0.944854,-0.06755 c 0.681215,-0.0487 0.980539,-0.11558 1.072745,-0.239689 0.106281,-0.143052 0.127891,-0.0897 0.127891,0.315717 0,0.428584 -0.01694,0.464806 -0.139465,0.298134 -0.115841,-0.157586 -0.310732,-0.189722 -1.150593,-0.189722 -0.897431,0 -1.025874,0.02438 -1.142256,0.216825 -0.184231,0.304636 -0.290587,0.269694 -0.290587,-0.09547 z m 6.2658325,-0.495251 c -0.862876,-0.317791 -1.075351,-0.845573 -0.412985,-1.025848 1.322099,-0.359834 4.383073,-0.44374 4.383073,-0.120147 0,0.210453 -0.678492,0.590038 -1.756269,0.982552 -0.946023,0.344531 -1.592524,0.392261 -2.213819,0.163443 z M 26.93614,21.358806 c -0.09335,-0.25121 0.220773,-0.699148 0.618116,-0.88143 0.972024,-0.445918 2.42639,-0.921388 2.818343,-0.921388 0.493726,0 1.096565,0.348986 1.205643,0.697952 0.161517,0.516734 -1.092542,0.900784 -3.97441,1.217147 -0.499528,0.05484 -0.612661,0.03581 -0.667692,-0.112281 z m 8.408024,1.91e-4 c -0.496887,-0.232228 -0.681888,-0.529747 -0.791915,-1.273561 -0.05631,-0.380637 -0.128677,-0.81403 -0.160825,-0.963098 -0.05265,-0.244111 -0.04473,-0.252078 0.0797,-0.08022 0.123947,0.171194 0.224512,0.179648 0.978023,0.08223 1.234146,-0.159566 1.416879,-0.213231 1.420474,-0.417169 0.0081,-0.460774 0.207087,0.218123 0.270537,0.923103 0.0748,0.83158 -0.0781,1.308426 -0.512128,1.59706 -0.358965,0.238697 -0.929626,0.297216 -1.283867,0.131656 z m 1.042088,-0.46587 c 0.230673,-0.113592 0.407337,-0.300665 0.475989,-0.504034 0.127257,-0.376978 0.143887,-0.908868 0.03043,-0.973754 -0.07889,-0.04512 -1.468868,0.09185 -1.863462,0.183634 -0.115482,0.02686 -0.2454,0.05257 -0.288706,0.05713 -0.1138,0.01199 -0.09672,0.356322 0.03738,0.753567 0.207391,0.614352 0.912283,0.826233 1.608364,0.483454 z M 8.1830625,20.45342 c -0.04065,-0.160536 -0.243882,-0.219365 -1.141909,-0.330548 -0.998585,-0.123634 -1.10373,-0.119415 -1.223684,0.0491 -0.11525,0.161903 -0.129717,0.145524 -0.118808,-0.134505 0.0068,-0.17537 0.04408,-0.465212 0.08277,-0.644092 0.06136,-0.283675 0.07806,-0.296346 0.130708,-0.09915 0.05161,0.193294 0.198182,0.246484 1.01064,0.36674 0.522653,0.07736 1.066885,0.117638 1.209404,0.0895 0.247878,-0.04893 0.256752,-0.03191 0.204446,0.392147 -0.0647,0.524574 -0.08766,0.571044 -0.153563,0.310813 z M 16.178969,18.51657 C 15.653075,17.951208 14.744456,17.485228 13.8707,17.332786 13.379547,17.247096 13.235222,16.953539 13.16484,15.897067 l -0.05236,-0.78599 h 0.330844 c 0.361719,0 0.969919,0.355276 1.367237,0.798664 0.139253,0.1554 0.667002,0.53553 1.172776,0.844734 0.796639,0.487024 0.928193,0.609555 0.98395,0.916472 0.09436,0.519399 -0.111283,1.234566 -0.35499,1.234566 -0.03934,0 -0.234341,-0.175024 -0.433326,-0.388943 z m 9.471467,-0.09928 c -0.323281,-0.155412 -0.54302,-0.326875 -0.519655,-0.405488 0.02227,-0.07491 0.411311,-0.388779 0.864545,-0.697475 0.453234,-0.308696 1.113535,-0.857534 1.467334,-1.21964 0.53384,-0.546375 0.704031,-0.658376 1.000436,-0.658376 0.337692,0 0.916665,0.147641 1.264435,0.322437 0.230483,0.115846 0.254486,0.531198 0.04454,0.770761 -0.173988,0.198533 -1.190698,0.749814 -1.382858,0.749814 -0.05033,0 -0.33725,0.216607 -0.637595,0.48135 -1.190847,1.049686 -1.247023,1.067241 -2.101182,0.656617 z m 8.42446,-0.460389 c -0.378514,-1.080575 -0.460769,-1.366457 -0.408647,-1.420282 0.02787,-0.02878 0.05067,0.0046 0.05067,0.07416 0,0.197277 0.278296,0.153144 1.332533,-0.211318 0.808853,-0.279629 0.977111,-0.376084 0.977111,-0.560131 0,-0.193069 0.149935,-0.18144 0.161953,0.01256 0.0025,0.03975 0.06622,0.25849 0.141693,0.486086 0.07547,0.227596 0.108886,0.443066 0.07426,0.478822 -0.03462,0.03576 -0.06296,-0.02164 -0.06296,-0.127538 0,-0.249468 -0.383652,-0.193658 -1.496019,0.217627 -0.623002,0.230348 -0.813624,0.348578 -0.813624,0.504634 0,0.366595 0.32176,0.856835 0.662942,1.010071 l 0.334404,0.150192 -0.367978,0.0042 c -0.353696,0.0041 -0.376453,-0.01995 -0.586339,-0.619129 z M 5.9556435,18.227932 c 0.146115,-0.484359 0.251472,-0.731784 0.311605,-0.731784 0.03371,0 0.03188,0.04913 -0.0041,0.109178 -0.111922,0.187008 0.192888,0.226982 1.057049,0.138624 0.530507,-0.05424 0.833118,-0.132284 0.833118,-0.214856 0,-0.07132 -0.305257,-0.373641 -0.678349,-0.671826 -0.508861,-0.406694 -0.712148,-0.513186 -0.813625,-0.426218 -0.09941,0.08519 -0.1325,0.07648 -0.12481,-0.03285 0.01603,-0.227979 0.177172,-0.707955 0.189038,-0.563081 0.01358,0.165869 0.108206,0.258528 1.253013,1.227029 1.106137,0.935786 1.148678,0.861219 -0.619243,1.085419 -0.602653,0.07643 -1.140613,0.180658 -1.195467,0.231627 -0.182065,0.169172 -0.282854,0.09597 -0.208273,-0.151257 z M 19.600735,16.437934 c -0.446133,-0.696171 -1.28798,-2.762329 -1.365205,-3.350648 -0.06342,-0.483141 -0.04346,-0.591286 0.14509,-0.78599 0.289847,-0.299313 0.441726,-0.284844 0.759603,0.07237 0.769092,0.864253 1.51629,3.327458 1.282564,4.228086 -0.103545,0.398996 -0.513767,0.317249 -0.822052,-0.163814 z m 3.539154,0.272227 c -0.0574,-0.07453 -0.09073,-0.22264 -0.07408,-0.329126 0.116693,-0.746314 0.627273,-2.544995 0.888133,-3.12873 0.206912,-0.463015 0.66537,-0.739005 1.350416,-0.812944 0.561506,-0.06061 0.627331,-0.04601 0.688379,0.152614 0.08849,0.2879 -0.161335,0.923348 -0.877452,2.2319 -0.937795,1.71362 -1.612342,2.357739 -1.975392,1.886286 z m 10.169307,-0.732517 c -0.226527,-0.416214 -0.231025,-0.450713 -0.05148,-0.394861 0.134085,0.04171 0.260342,-0.0285 0.396467,-0.220461 0.197929,-0.279118 0.197475,-0.285923 -0.0503,-0.754308 -0.193593,-0.365963 -0.309767,-0.472275 -0.514682,-0.470989 -0.294316,0.0018 -0.47438,0.09765 -0.537616,0.286051 -0.02309,0.0688 -0.117892,-0.02939 -0.210665,-0.218208 l -0.168677,-0.343301 0.378645,0.0328 c 0.208255,0.01804 0.865042,-0.03405 1.459527,-0.115762 0.594486,-0.08171 1.105332,-0.107708 1.135215,-0.05778 0.04763,0.07959 -0.308847,0.700855 -0.486686,0.848189 -0.142795,0.118302 -0.997839,1.475993 -1.048032,1.664129 -0.04272,0.160113 -0.103565,0.108586 -0.30172,-0.255499 z m 1.171226,-1.763422 c 0.109365,-0.112936 0.176802,-0.228102 0.14986,-0.255923 -0.06931,-0.07157 -1.123418,0.08231 -1.122942,0.163929 2.16e-4,0.03704 0.09775,0.232254 0.216746,0.433813 l 0.216353,0.36647 0.170569,-0.251475 c 0.09381,-0.138311 0.26005,-0.343878 0.369414,-0.456814 z M 9.2556895,16.094066 c 0,-0.18469 -1.784238,-1.225234 -2.000698,-1.16678 -0.112179,0.03029 -0.203962,0.02967 -0.203962,-0.0014 0,-0.160707 1.001992,-1.766258 1.102286,-1.766258 0.06456,0 0.208194,0.06857 0.319179,0.152372 0.190034,0.143495 0.185919,0.149239 -0.07063,0.09859 -0.236513,-0.04669 -0.308897,0.01362 -0.549168,0.457552 -0.152212,0.28123 -0.276749,0.525597 -0.276749,0.543038 0,0.05809 0.705677,0.483043 0.802142,0.483043 0.174687,0 0.481924,-0.72599 0.408431,-0.965107 l -0.0704,-0.22904 0.374765,0.228338 c 0.37798,0.230297 0.505359,0.390282 0.221033,0.277613 -0.136283,-0.05401 -0.791122,0.61156 -0.791122,0.80408 0,0.03656 0.229183,0.195292 0.509296,0.352727 l 0.509296,0.286247 0.294357,-0.558493 c 0.2598715,-0.493064 0.2800755,-0.597566 0.1724535,-0.891999 l -0.1219035,-0.333506 0.2576815,0.286972 0.25768,0.286973 -0.4809655,0.878072 c -0.433131,0.790744 -0.663008,1.060123 -0.663008,0.776937 z m 1.3647895,-2.340224 c 0,-0.09762 -0.200781,-0.373438 -0.446181,-0.612926 -0.7605845,-0.742261 -1.1134905,-0.986338 -1.3383335,-0.925621 -0.115598,0.03122 -0.210178,0.03332 -0.210178,0.0047 0,-0.02865 0.27565,-0.341185 0.612554,-0.694531 0.441092,-0.462618 0.6902,-0.642448 0.8899435,-0.642448 0.345878,0 0.642816,0.42776 0.569997,0.821125 l -0.05158,0.278661 0.827008,-0.03493 c 0.454854,-0.01921 0.826897,-0.0059 0.826762,0.02957 -1.36e-4,0.03548 -0.08664,0.145246 -0.192235,0.243928 -0.143254,0.133877 -0.394848,0.179421 -0.99115,0.179421 -0.494115,0 -0.827961,0.04812 -0.874608,0.12606 -0.110196,0.184124 0.564681,0.772818 0.810007,0.706569 0.188346,-0.05086 0.187507,-0.03793 -0.01677,0.258317 -0.274409,0.397958 -0.415232,0.486857 -0.415232,0.262131 z m -0.285308,-1.587636 c 0.200499,-0.427506 0.09704,-0.759531 -0.280004,-0.898563 -0.2377465,-0.08767 -0.3229345,-0.05858 -0.5659225,0.193211 l -0.286047,0.296414 0.419935,0.371884 c 0.230964,0.204536 0.4494675,0.373716 0.4855605,0.375955 0.03609,0.0022 0.138009,-0.150267 0.226478,-0.338901 z m 21.07313,0.819423 c -0.397346,-0.445148 -0.439915,-0.5434 -0.392753,-0.906505 0.07253,-0.558411 0.345555,-0.950579 0.84495,-1.213672 0.680686,-0.358602 1.658438,-0.02339 1.815392,0.622389 0.03545,0.14587 0.141565,0.309777 0.235804,0.364238 0.1523,0.08801 0.14313,0.130033 -0.08251,0.378059 -0.319535,0.351238 -0.457757,0.358451 -0.306661,0.016 0.243901,-0.552787 -0.183688,-1.254738 -0.764316,-1.254738 -0.38941,0 -0.946888,0.331289 -1.182597,0.702776 -0.09259,0.145919 -0.168338,0.460266 -0.168338,0.698548 0,0.483166 0.277953,0.840934 0.732797,0.943222 0.465088,0.104593 0.483228,0.131627 0.0942,0.140382 -0.322441,0.0073 -0.448138,-0.06742 -0.825966,-0.490702 z m -19.120333,-1.52457 -0.250207,-0.279763 0.262459,0.08255 c 0.144353,0.0454 0.319412,0.104635 0.389021,0.131627 0.06961,0.02699 0.251088,-0.07952 0.403289,-0.236687 0.254009,-0.262305 0.264152,-0.305382 0.12355,-0.524708 -0.131448,-0.205047 -0.263121,-0.243106 -0.928208,-0.26829 -0.63632,-0.0241 -0.807912,-0.0699 -0.958752,-0.255938 -0.354658,-0.437414 -0.23017,-0.76402 0.459692,-1.206046 0.264795,-0.169666 0.286052,-0.165712 0.524919,0.09764 l 0.248949,0.274472 -0.280964,-0.13173 c -0.360113,-0.168839 -0.788057,-0.05814 -0.875535,0.22648 -0.122428,0.398336 0.120068,0.536608 0.941085,0.536608 0.654731,0 0.78686,0.03367 0.984492,0.250915 0.395467,0.434704 0.291993,0.81134 -0.347782,1.265892 l -0.445801,0.316737 z m 16.69308,-0.716671 C 28.785332,10.608531 28.40324,10.364024 28.131954,10.20104 27.595447,9.878715 27.407542,9.679608 27.719317,9.763802 c 0.136647,0.0369 0.272968,-0.05697 0.446326,-0.307331 0.481781,-0.695788 0.931985,-1.528824 0.931985,-1.724502 0,-0.160483 0.152883,-0.09336 0.813625,0.357231 0.447493,0.305166 0.829132,0.566441 0.848086,0.58061 0.01895,0.01417 -0.04025,0.164235 -0.131565,0.333481 l -0.166026,0.307718 0.06174,-0.287972 c 0.0524,-0.24441 0.0011,-0.330511 -0.338987,-0.569166 -0.220399,-0.154656 -0.472433,-0.280859 -0.560076,-0.280452 -0.148478,6.9e-4 -0.711954,0.723292 -0.620677,0.795956 0.02276,0.01812 0.219884,0.143824 0.438044,0.279336 0.319536,0.198482 0.426694,0.22064 0.551165,0.113964 0.19994,-0.171355 0.198709,-0.0025 -0.0021,0.293665 -0.15661,0.230894 -0.156749,0.230856 -0.514421,-0.138497 -0.196772,-0.203199 -0.421546,-0.368848 -0.499496,-0.36811 -0.154126,0.0015 -0.614156,0.669402 -0.614156,0.891726 0,0.246118 0.902586,0.660539 1.27231,0.584179 l 0.331469,-0.06846 -0.267283,0.217111 c -0.3284,0.266756 -0.288426,0.268421 -0.718189,-0.0299 z M 14.253266,10.251479 c 0.06173,-0.28337 -1.128236,-2.028368 -1.368387,-2.006634 -0.158062,0.0143 -0.136259,-0.03455 0.107116,-0.24003 0.304312,-0.256926 0.637058,-0.360418 0.517723,-0.161025 -0.103781,0.173407 1.077586,2.002067 1.335655,2.067485 0.204003,0.05171 0.181584,0.08405 -0.201028,0.289994 -0.375921,0.202341 -0.425611,0.20872 -0.391079,0.05021 z M 15.362049,9.593723 C 15.463075,9.426671 15.430939,9.230404 15.188966,8.536701 15.025536,8.068168 14.807055,7.558656 14.703452,7.404454 L 14.515083,7.124085 15.061146,6.891339 c 0.815535,-0.347602 1.152944,-0.390741 1.520593,-0.194413 0.481441,0.257093 0.757703,0.724585 0.757703,1.282185 0,0.613883 -0.399024,1.059017 -1.347359,1.503056 -0.800544,0.374838 -0.787903,0.3726 -0.630034,0.111556 z M 16.437683,9.076979 C 17.149956,8.726226 17.199287,7.789438 16.541267,7.109928 16.21037,6.768224 16.142678,6.74253 15.745936,6.808044 c -0.579828,0.09575 -0.641966,0.148519 -0.575988,0.48918 0.06563,0.338871 0.766706,1.959579 0.847662,1.959579 0.0302,0 0.21923,-0.08092 0.420073,-0.179824 z m 9.038004,-0.25734 C 25.071499,8.646168 24.836353,8.502815 24.95314,8.501077 25.163556,8.497977 25.332747,8.239741 25.6656,7.413791 26.06463,6.423623 26.084157,6.336323 25.94526,6.163496 25.828165,6.017798 25.8466,6.011157 26.096158,6.109136 c 0.718753,0.282194 1.39122,0.647733 1.570359,0.853613 0.31939,0.367069 0.341031,1.085506 0.0462,1.533585 -0.483947,0.735481 -1.076958,0.821185 -2.237025,0.323303 z m 1.634274,-0.221077 c 0.579591,-0.640718 0.490465,-1.560977 -0.190628,-1.968288 -0.296624,-0.177389 -0.321387,-0.177389 -0.470321,0 -0.08647,0.102987 -0.24452,0.431176 -0.351232,0.729311 -0.106712,0.298134 -0.254615,0.664026 -0.328673,0.813093 -0.07406,0.149068 -0.134942,0.329589 -0.135298,0.40116 -9.98e-4,0.200804 0.32522,0.350795 0.770858,0.354431 0.318003,0.0026 0.468217,-0.06763 0.705294,-0.329707 z M 18.127033,8.497674 c 0.08649,-0.0987 0.157264,-0.252293 0.157264,-0.341323 0,-0.08903 0.06638,-0.377902 0.147504,-0.641938 0.08113,-0.264036 0.232956,-0.805327 0.337396,-1.202868 0.185011,-0.704231 0.194034,-0.716458 0.351168,-0.475876 0.0887,0.13581 0.432784,0.669886 0.764624,1.186835 0.331841,0.51695 0.686161,0.972776 0.787379,1.012947 0.155962,0.0619 0.143999,0.08455 -0.07843,0.148533 -0.461842,0.132844 -0.77449,0.114423 -0.651861,-0.03841 0.174201,-0.217104 -0.21142,-0.623371 -0.591692,-0.623371 -0.57797,0 -0.856123,0.175243 -0.856123,0.539379 0,0.180356 0.05003,0.32792 0.11118,0.32792 0.238279,0 -0.02102,0.194463 -0.319651,0.239724 -0.288462,0.04372 -0.302309,0.03225 -0.15876,-0.131553 z m 1.368161,-1.214065 c 0.06531,-0.06744 -0.480135,-0.953943 -0.586945,-0.953943 -0.05447,0 -0.09903,0.118788 -0.09903,0.263974 0,0.145185 -0.04423,0.384097 -0.09828,0.530915 -0.05405,0.146818 -0.07531,0.290662 -0.04724,0.319654 0.05103,0.05269 0.756987,-0.08366 0.831495,-0.1606 z m 1.566348,0.7435 c 0.150431,-0.11359 0.216807,-0.390495 0.302148,-1.260483 0.102879,-1.048773 0.0973,-1.124118 -0.09398,-1.270061 -0.210289,-0.160445 -0.07448,-0.157547 1.296399,0.02766 1.241231,0.16769 1.591277,1.592529 0.603161,2.455128 -0.169529,0.147994 -0.42696,0.186854 -1.256854,0.189722 -0.898572,0.0031 -1.016858,-0.01663 -0.850876,-0.141963 z m 1.673932,-0.08598 C 23.00717,7.813293 23.323823,7.162849 23.323127,6.734017 23.322406,6.290056 22.94475,5.809042 22.4853,5.666892 21.869245,5.476289 21.80743,5.585322 21.768419,6.931345 l -0.03284,1.132919 h 0.369093 c 0.203001,0 0.48686,-0.05541 0.630798,-0.123135 z"
       id="path1" />
  </g>
</svg>
